<?xml version="1.0" encoding="UTF-8" standalone="no"?>
<svg
   xmlns:dc="http://purl.org/dc/elements/1.1/"
   xmlns:cc="http://creativecommons.org/ns#"
   xmlns:rdf="http://www.w3.org/1999/02/22-rdf-syntax-ns#"
   xmlns:svg="http://www.w3.org/2000/svg"
   xmlns="http://www.w3.org/2000/svg"
   xmlns:sodipodi="http://sodipodi.sourceforge.net/DTD/sodipodi-0.dtd"
   xmlns:inkscape="http://www.inkscape.org/namespaces/inkscape"
   viewBox="0 0 45 45"
   style="enable-background:new 0 0 45 45;"
   xml:space="preserve"
   version="1.1"
   id="svg2"
   sodipodi:docname="add.svg"
   inkscape:version="0.92.2 (5c3e80d, 2017-08-06)"><sodipodi:namedview
     pagecolor="#ffffff"
     bordercolor="#666666"
     borderopacity="1"
     objecttolerance="10"
     gridtolerance="10"
     guidetolerance="10"
     inkscape:pageopacity="0"
     inkscape:pageshadow="2"
     inkscape:window-width="1920"
     inkscape:window-height="1017"
     id="namedview3725"
     showgrid="false"
     inkscape:zoom="18.888889"
     inkscape:cx="22.5"
     inkscape:cy="22.5"
     inkscape:window-x="1912"
     inkscape:window-y="-8"
     inkscape:window-maximized="1"
     inkscape:current-layer="g10" /><metadata
     id="metadata8"><rdf:RDF><cc:Work
         rdf:about=""><dc:format>image/svg+xml</dc:format><dc:type
           rdf:resource="http://purl.org/dc/dcmitype/StillImage" /><dc:title></dc:title></cc:Work></rdf:RDF></metadata><defs
     id="defs6"><clipPath
       id="clipPath16"
       clipPathUnits="userSpaceOnUse"><path
         id="path18"
         d="M 0,36 36,36 36,0 0,0 0,36 Z" /></clipPath><clipPath
       clipPathUnits="userSpaceOnUse"
       id="clipPath16-1"><path
         d="M 0,36 36,36 36,0 0,0 0,36 Z"
         id="path18-5" /></clipPath></defs><g
     transform="matrix(1.25,0,0,-1.25,0,45)"
     id="g10"><g
       id="g12"><g
         clip-path="url(#clipPath16)"
         id="g14"><g
           transform="translate(36,4)"
           id="g20"><path
             id="path22"
             style="fill:#3b88c3;fill-opacity:1;fill-rule:nonzero;stroke:none"
             d="m 0,0 c 0,-2.209 -1.791,-4 -4,-4 l -28,0 c -2.209,0 -4,1.791 -4,4 l 0,28 c 0,2.209 1.791,4 4,4 l 28,0 c 2.209,0 4,-1.791 4,-4 L 0,0 Z" /></g><g
           transform="translate(29,22)"
           id="g24" /></g></g><path
       style="fill:#ffffff;stroke-width:0.03387033"
       d="m 17.405895,5.3767864 c -0.7678,0.2011747 -1.386755,0.7803752 -1.660939,1.5542599 l -0.09116,0.2572911 -0.01694,4.2507256 -0.01694,4.250727 -4.250727,0.01694 -4.250727,0.01694 -0.2572917,0.09116 c -0.6071454,0.215108 -1.0905375,0.631006 -1.3607244,1.17073 -0.2099672,0.41943 -0.2743752,0.724857 -0.254211,1.205486 0.012055,0.28733 0.036888,0.439313 0.1037604,0.635026 0.2427134,0.710339 0.7726359,1.249054 1.4765806,1.501076 l 0.2918861,0.1045 4.250727,0.01694 4.250727,0.01694 0.01694,4.267661 0.01694,4.267663 0.107999,0.280215 c 0.271505,0.704451 0.797344,1.215122 1.497577,1.454382 0.346423,0.118367 0.89778,0.145189 1.272206,0.06189 0.784641,-0.174567 1.449649,-0.767425 1.725694,-1.538469 l 0.1045,-0.291886 0.01694,-4.250726 0.01694,-4.250727 4.250727,-0.01694 4.250726,-0.01694 0.291886,-0.104499 c 1.382264,-0.494871 1.990656,-2.062383 1.310671,-3.376921 -0.197183,-0.381193 -0.583179,-0.768337 -0.95902,-0.961873 -0.55924,-0.287978 -0.11584,-0.262469 -4.894263,-0.281565 l -4.250725,-0.01699 -0.01699,-4.250727 C 20.362608,7.4222224 20.358226,7.1780876 20.299151,7.0020508 20.023785,6.1816035 19.393,5.5789565 18.596347,5.3752074 c -0.34343,-0.087835 -0.851767,-0.087161 -1.190448,0.0016 z"
       id="path3760"
       inkscape:connector-curvature="0" /></g></svg>